<svg xmlns="http://www.w3.org/2000/svg" width="534.31" height="530.05" viewBox="0 0 141.369 140.243"><path style="opacity:1;fill:#000;fill-opacity:1;fill-rule:evenodd;stroke:#1534ff;stroke-width:0;stroke-linecap:round;stroke-linejoin:miter;stroke-miterlimit:4;stroke-dasharray:none;stroke-dashoffset:0;stroke-opacity:1;paint-order:normal" d="M121.397 137.138a19.995 19.997 0 0 1-14.45 24.307 19.995 19.997 0 0 1-24.306-14.449 19.995 19.997 0 0 1 14.443-24.31 19.995 19.997 0 0 1 24.31 14.441" transform="translate(-40.36 -64.243)"/><path style="opacity:1;fill:#ecffff;fill-opacity:0;fill-rule:evenodd;stroke:#000;stroke-width:12;stroke-linecap:round;stroke-linejoin:miter;stroke-miterlimit:4;stroke-dasharray:none;stroke-dashoffset:0;stroke-opacity:1;paint-order:normal" d="M137.496 142.691a35.728 35.732 0 0 1-24.769 34.01 35.728 35.732 0 0 1-39.964-13.145 35.728 35.732 0 0 1 .25-42.073 35.728 35.732 0 0 1 40.118-12.668" fill="none" transform="translate(-40.36 -64.243)"/><path style="fill:none;stroke:#000;stroke-width:12;stroke-linecap:round;stroke-linejoin:miter;stroke-miterlimit:4;stroke-dasharray:none;stroke-opacity:1" d="M137.497 70.328v73.859" transform="translate(-40.36 -64.243)"/><path style="opacity:1;fill:#ecffff;fill-opacity:0;fill-rule:evenodd;stroke:#000;stroke-width:12;stroke-linecap:round;stroke-linejoin:miter;stroke-miterlimit:4;stroke-dasharray:none;stroke-dashoffset:0;stroke-opacity:1;paint-order:normal" d="M152.154 164.306a54.935 54.941 0 0 1-50.757 34.18A54.935 54.941 0 0 1 50.51 164.5a54.935 54.941 0 0 1 12.117-59.985" fill="none" transform="translate(-40.36 -64.243)"/><path style="opacity:1;fill:#faffff;fill-opacity:0;fill-rule:evenodd;stroke:#000;stroke-width:12;stroke-linecap:round;stroke-linejoin:miter;stroke-miterlimit:4;stroke-dasharray:none;stroke-dashoffset:0;stroke-opacity:1;paint-order:normal" d="M137.497 70.328a82.807 82.815 0 0 1 38.203 44.428" fill="none" transform="translate(-40.36 -64.243)"/></svg>