<svg xmlns="http://www.w3.org/2000/svg" viewBox="0 0 512 512" style="width:22px;color:#fff"><path style="fill:#fff;fill-rule:evenodd;stroke-width:1.08862078;fill-opacity:1;opacity:1" d="M79.021 96A27.96 27.96 0 0 0 51 124.021V387.98A27.96 27.96 0 0 0 79.021 416H432.98A27.96 27.96 0 0 0 461 387.979V124.02A27.96 27.96 0 0 0 432.979 96H79.02zm116.211 47.209a49.998 49.995 0 0 1 48.254 36.775l1.78 13.221a49.998 49.995 0 0 1-46.655 49.883 49.998 49.995 0 0 1-52.894-43.213 49.998 49.995 0 0 1 39.584-55.662 49.998 49.995 0 0 1 9.931-1.004zm151.051 82.697 63.467 63.467V376h-307.5l95.035-95.035 46.969 46.97 102.03-102.029z"/><path style="fill:#fff;fill-rule:evenodd;stroke-width:.81646562;fill-opacity:1;opacity:.4" d="m409.75 289.373-63.467-63.467-102.03 102.03-46.968-46.971L102.25 376h307.5z"/></svg>