<svg xmlns="http://www.w3.org/2000/svg" viewBox="0 0 512 512" style="width:22px;color:#fff"><path style="fill:#fff;fill-rule:evenodd;stroke-width:1.0297395;fill-opacity:1;opacity:1" d="M142.506 95C119.512 95 101 113.512 101 136.506v88.234l-40.377-40.377L23.5 221.486l87.959 87.96a20.562 20.562 0 0 0 29.145 0l87.958-87.96-37.123-37.123L151 224.803V145h210v25h50v-33.494C411 113.512 392.488 95 369.494 95H142.506z"/><path style="fill:#fff;fill-rule:evenodd;stroke-width:1.0297395;fill-opacity:1;opacity:.4" d="M386.031 196.363a20.542 20.542 0 0 0-14.572 6.055L283.5 290.377l37.123 37.123L361 287.123V367H151v-25h-50v33.494C101 398.488 119.512 417 142.506 417h226.988C392.488 417 411 398.488 411 375.494v-88.433l40.44 40.439 37.123-37.123-87.96-87.959a20.542 20.542 0 0 0-14.572-6.055z"/></svg>